<?xml version="1.0" encoding="utf-8"?>
<!-- Generator: Adobe Illustrator 28.2.0, SVG Export Plug-In . SVG Version: 6.00 Build 0)  -->
<svg version="1.1" id="Layer_1" xmlns="http://www.w3.org/2000/svg" xmlns:xlink="http://www.w3.org/1999/xlink" x="0px" y="0px"
	 viewBox="0 0 16 16" style="enable-background:new 0 0 16 16;" xml:space="preserve">
<style type="text/css">
	.st0{fill:#01325C;}
</style>
<path class="st0" d="M14.29,5.32V4.49c-3.2,0.05-6.03,0.76-8.31,2.41C5.88,6.97,5.76,7,5.64,7h0C5.48,6.99,5.33,6.9,5.24,6.77
	L4.83,6.18L3.82,4.72H0v3.35l0.06,0.04L1.1,8.87c0.05,0.04,0.05,0.12-0.01,0.15L0.14,9.49c0.4,1.17,1.62,2.02,3.05,2.02
	c0.87,0,1.66-0.31,2.24-0.82c0.05-0.05,0.1-0.1,0.15-0.14l0,0l0.05-0.05c0,0,0.01-0.01,0.01-0.01l4.36-4.37L16,6.09V5.32H14.29z
	 M12.9,5.54c-0.14,0-0.25-0.11-0.25-0.25s0.11-0.25,0.25-0.25c0.14,0,0.25,0.11,0.25,0.25S13.04,5.54,12.9,5.54z"/>
</svg>
